<?xml version="1.0"?>
<!DOCTYPE svg PUBLIC "-//W3C//DTD SVG 1.1//EN" 
  "http://www.w3.org/Graphics/SVG/1.1/DTD/svg11.dtd">
<svg version="1.1"
     xmlns="http://www.w3.org/2000/svg"
     xmlns:xlink="http://www.w3.org/1999/xlink"
     width="30cm" height="26cm" 
     viewBox="0 0 15 13">
<!--definitons-->
<defs>
	<g id="bubbles">
		<circle cx="4" cy="3" r=".15" fill= "lightcyan">
		<animate
		attributeName="cy"
		keyTimes="0;.25;.5;1" values="3.0;2.8;2.6;2.4" dur="3s"
		repeatCount="indefinite"
		/>
	</circle>
</g>
</defs>

<defs>
<g id="stone">						
	<rect	x="13.05" y="5.36" width=".15" height=".15"/>
</g>
</defs>

<!--firstportion of seaweed-->							
<defs>
	<g id="leaf1">
<ellipse cx="3.2" cy="8.8" rx=".08" ry=".18" stroke="darkolivegreen" fill="seagreen"
					stroke-width=".01" >
<animate
		attributeName="cx"
		keyTimes="0;.25;.5;1" values="3.2;3.18;3.2;3.23" dur="3s"
		begin="1s"
		repeatCount="indefinite"
		/>
</ellipse>
	</g>

</defs>

<defs>
	<g id="leaf2">
		<ellipse cx="3.1" cy="8.6" rx=".08" ry=".18" stroke="darkolivegreen" fill="seagreen"
					stroke-width=".01" >
		<animate
		attributeName="cx"
		keyTimes="0;.25;.5;1" values="3.2;3.23;3.2;3.18" dur="3s"
		begin="1s"
		repeatCount="indefinite"
		/>
</ellipse>
	</g>

</defs>

<defs>
	<g id="seaweed">
		<use xlink:href="#leaf1"/>
		<use xlink:href="#leaf2"/>
		<use xlink:href="#leaf1" transform="translate(-.03,-.45)"/>
		<use xlink:href="#leaf2" transform="translate(-.01,-.55)"/>
		<use xlink:href="#leaf1" transform="translate(.01,0)"/>
		<use xlink:href="#leaf2" transform="translate(.015,-.85)"/>
		
</g>
</defs>

<defs>
	<g id="seaweed2">
	<use xlink:href="#leaf1"/>
		<use xlink:href="#leaf2"/>
		<use xlink:href="#leaf1" transform="translate(-.03,-.45)"/>
		<use xlink:href="#leaf2" transform="translate(-.01,-.55)"/>
		<use xlink:href="#leaf1" transform="translate(.01,0)"/>
		<use xlink:href="#leaf2" transform="translate(.015,-.85)"/>
		<use xlink:href="#leaf1" transform="translate(.01,-1.25)"/>
</g>
</defs>
<defs>
	<g id="coral">
	<ellipse cx="2.95" cy="7" rx=".1" ry=".3"
		fill="darksalmon" />
	</g>
</defs>
<defs>
	<g id="coralPlant">

		<use xlink:href="#coral" transform="translate (5.25,-.38) rotate(33)"/>
		<use xlink:href="#coral" transform="translate (.9,-.07)" />
		<use xlink:href="#coral" transform="translate (-2.35,2.5) rotate(-30)"/>
	</g>
</defs>

<defs>
	<g id="tail">
	<path d="M3.7 3 L4 5 L5 3.75 Z" />
	</g>
</defs>

<defs>
<g id="fish">
<ellipse cx="3.7" cy="5" rx=".6" ry=".25" fill="salmon"/>
<circle cx="4.2" cy="5" r=".05" fill= "black"/>
<line x1="3.7" y1="5" x2="3.5" y2="5.05" stroke="sienna" stroke-width=".01"/>
<use xlink:href="#tail" transform="translate(2.6,4.6) scale(.1,.1)" stroke="salmon" />
<animateTransform
		attributeName="transform"
		type="translate"
		from ="1"
		to="10.5"
		dur="6s"
		repeatCount="indefinite"
		/>
</g>
</defs>


<defs>
<g id="fish2">
	<ellipse cx="13.5" cy="5" rx=".6" ry=".25" fill="salmon"/>
<circle cx="13" cy="5" r=".05" fill= "black"/>
<line x1="13.7" y1="5" x2="13.5" y2="5.05" stroke="sienna" stroke-width=".01"/>
<use xlink:href="#tail" transform=" translate(14.65,5.35) scale(.1,.1) rotate (180)" stroke="salmon" />
<animateTransform
		attributeName="transform"
		type="translate"
		from ="0"
		to="-10"
		dur="6s"
		repeatCount="indefinite"
		/>
</g>
</defs>
<defs>
<g id="fish3">
<ellipse cx="3.7" cy="5" rx=".6" ry=".25" fill="darkgreen"/>
<circle cx="4.2" cy="5" r=".05" fill= "black"/>
<line x1="3.7" y1="5" x2="3.5" y2="5.05" stroke="black" stroke-width=".01"/>
<use xlink:href="#tail" transform="translate(2.6,4.6) scale(.1,.1)" stroke="darkgreen" />
<animateTransform
		attributeName="transform"
		type="translate"
		from ="1"
		to="10.5"
		dur="5s"
		repeatCount="indefinite"
		/>
</g>
</defs>



<defs>
<g id="fish4">
	<ellipse cx="13.5" cy="5" rx=".6" ry=".25" fill="darkgreen"/>
<circle cx="13" cy="5" r=".05" fill= "black"/>
<line x1="13.7" y1="5" x2="13.5" y2="5.05" stroke="black" stroke-width=".01"/>
<use xlink:href="#tail" transform=" translate(14.65,5.35) scale(.1,.1) rotate (180)" stroke="darkgreen" />
<animateTransform
		attributeName="transform"
		type="translate"
		from ="0"
		to="-10"
		dur="7s"
		repeatCount="indefinite"
		/>
</g>
</defs>


<rect x="2.8" y="1" width="12" height="8" 
                            stroke="blue" fill="paleturquoise" stroke-width="0.05"/>


<rect x="2.85" y="7" width = "11.9" height="2" fill="papayawhip"/>

<use xlink:href="#bubbles" />
<use xlink:href="#bubbles" transform ="translate(-.2, .5)"/>
<use xlink:href="#bubbles" transform ="translate(.2, 1)"/>
<use xlink:href="#bubbles" transform ="translate(-.2, 1.5)"/>
<use xlink:href="#bubbles" transform ="translate(8.4, 0)" />
<use xlink:href="#bubbles" transform ="translate(8.2, .5)"/>
<use xlink:href="#bubbles" transform ="translate(8.4, 1)"/>
<use xlink:href="#bubbles" transform ="translate(8.2, 1.5)"/>
<use xlink:href="#bubbles" transform ="translate(4.4, 2)" />
<use xlink:href="#bubbles" transform ="translate(4.2, 2.5)"/>
<use xlink:href="#bubbles" transform ="translate(4.4, 3)"/>
<use xlink:href="#bubbles" transform ="translate(4.2, 3.5)"/>

<!--building castle-->
<rect x="13.0" y="5.5" width="1.1" height="2" rx=".05" ry=".05" fill="slategray"/>
<rect x="12.75" y="6.2" width=".75" height=".1"  fill="grey"/>
<use xlink:href="#stone" fill="slategray"/>
<use xlink:href="#stone" transform="translate(.3,0)" fill="slategray"/>
<use xlink:href="#stone" transform="translate(.6,0)" fill="slategray"/>
<use xlink:href="#stone" transform="translate(.89,0)" fill="slategray"/>
<use xlink:href="#stone" transform="translate(.65,1)" fill="grey"/>
<use xlink:href="#stone" transform="translate(.35,.65)" fill="grey"/>
<use xlink:href="#stone" transform="translate(0,.2)" fill="grey"/>
<use xlink:href="#stone" transform="translate(.2,.35)" fill="grey"/>
<use xlink:href="#stone" transform="translate(.59,1.3)" fill="grey"/>
<use xlink:href="#stone" transform="translate(.9,1.3)" fill="grey"/>
<use xlink:href="#stone" transform="translate(-.04,.45)" fill="grey"/>
<rect x="13.2" y="6.5" width=".2" height=".25" fill="black"/>
<rect x="13.75" y="5.75" width=".2" height=".25" fill="black"/>



<use xlink:href="#fish" />
<use xlink:href="#fish2" transform="translate(0,-1)"/>
<use xlink:href="#fish3" transform="translate(0,.5)" />
<use xlink:href="#fish4" transform="translate(0,-.5)" />

<!--stones-->
<ellipse cx="6" cy="7.7" rx=".6" ry=".2" fill="silver" />
<ellipse cx="8" cy="7.2" rx=".6" ry=".2" fill="silver" />
<ellipse cx="8" cy="7.5" rx=".2" ry=".02" fill="saddlebrown" />
<ellipse cx="6.5" cy="7.3" rx=".2" ry=".02" fill="saddlebrown" />
<ellipse cx="4.5" cy="7" rx=".2" ry=".02" fill="saddlebrown" />
<ellipse cx="9" cy="7" rx=".2" ry=".02" fill="saddlebrown" />
<ellipse cx="11" cy="7.25" rx=".2" ry=".02" fill="saddlebrown" />
<ellipse cx="10" cy="7.05" rx=".6" ry=".2" fill="silver" />
<ellipse cx="12.15" cy="7.25" rx=".6" ry=".2" fill="silver" />

<use xlink:href="#coralPlant" />
<use xlink:href="#coralPlant" transform= "translate(2,0)"/>
<use xlink:href="#coralPlant" transform= "translate(9,0)"/>
<use xlink:href="#seaweed" />
<use xlink:href="#seaweed2" transform="translate(.22,.05)"/>
<use xlink:href="#seaweed2" transform="translate(.52,.05)"/>
<use xlink:href="#seaweed" transform="translate(.72,.05)"/>
<use xlink:href="#seaweed2" transform="translate(1.12,.05)"/>
<use xlink:href="#seaweed2" transform="translate(1.32,.05)"/>
<use xlink:href="#seaweed" transform="translate(1.72,.05)"/>
<use xlink:href="#seaweed2" transform="translate(1.92,.05)"/>
<use xlink:href="#seaweed" transform="translate(2.32,.05)"/>
<use xlink:href="#seaweed2" transform="translate(2.52,.05)"/>
<use xlink:href="#seaweed" transform="translate(2.82,.05)"/>
<use xlink:href="#seaweed2" transform="translate(3.02,.05)"/>
<use xlink:href="#seaweed" transform="translate(3.32,.05)"/>
<use xlink:href="#seaweed2" transform="translate(3.52,.05)"/>
<use xlink:href="#seaweed" transform="translate(3.82,.05)"/>
<use xlink:href="#seaweed2" transform="translate(4.12,.05)"/>
<use xlink:href="#seaweed2" transform="translate(4.32,.05)"/>
<use xlink:href="#seaweed" transform="translate(4.62,.05)"/>
<use xlink:href="#seaweed" transform="translate(4.82,.05)"/>
<use xlink:href="#seaweed2" transform="translate(5.12,.05)"/>
<use xlink:href="#seaweed" transform="translate(5.32,.05)"/>
<use xlink:href="#seaweed2" transform="translate(5.62,.05)"/>
<use xlink:href="#seaweed2" transform="translate(5.82,.05)"/>
<use xlink:href="#seaweed" transform="translate(6.12,.05)"/>
<use xlink:href="#seaweed2" transform="translate(6.32,.05)"/>
<use xlink:href="#seaweed" transform="translate(6.52,.05)"/>
<use xlink:href="#seaweed" transform="translate(6.72,.05)"/>
<use xlink:href="#seaweed2" transform="translate(7.02,.05)"/>
<use xlink:href="#seaweed2" transform="translate(7.22,.05)"/>
<use xlink:href="#seaweed" transform="translate(7.42,.05)"/>
<use xlink:href="#seaweed2" transform="translate(7.62,.05)"/>
<use xlink:href="#seaweed2" transform="translate(7.82,.05)"/>
<use xlink:href="#seaweed" transform="translate(8.12,.05)"/>
<use xlink:href="#seaweed2" transform="translate(8.32,.05)"/>
<use xlink:href="#seaweed2" transform="translate(8.62,.05)"/>
<use xlink:href="#seaweed" transform="translate(8.82,.05)"/>
<use xlink:href="#seaweed2" transform="translate(9.12,.05)"/>
<use xlink:href="#seaweed" transform="translate(9.32,.05)"/>
<use xlink:href="#seaweed2" transform="translate(9.62,.05)"/>
<use xlink:href="#seaweed2" transform="translate(9.82,.05)"/>
<use xlink:href="#seaweed" transform="translate(10.12,.05)"/>
<use xlink:href="#seaweed2" transform="translate(10.33,.05)"/>
<use xlink:href="#seaweed" transform="translate(10.63,.05)"/>
<use xlink:href="#seaweed2" transform="translate(10.82,.05)"/>
<use xlink:href="#seaweed2" transform="translate(11.12,.05)"/>
<use xlink:href="#seaweed" transform="translate(11.32,.05)"/>
</svg>